<svg id="visual" viewBox="0 0 900 600" width="900" height="600" xmlns="http://www.w3.org/2000/svg" xmlns:xlink="http://www.w3.org/1999/xlink" version="1.1"><g stroke-width="1" stroke-linejoin="bevel"><path d="M476 321L491 383L558.5 306Z" fill="#031e39" stroke="#031e39"></path><path d="M491 383L575.5 396L558.5 306Z" fill="#3292bf" stroke="#3292bf"></path><path d="M575.5 396L663 361L558.5 306Z" fill="#0d3252" stroke="#0d3252"></path><path d="M370.5 418L491 492L491 383Z" fill="#266c95" stroke="#266c95"></path><path d="M491 383L491 492L575.5 396Z" fill="#226088" stroke="#226088"></path><path d="M575.5 396L650 516L663 361Z" fill="#2a78a3" stroke="#2a78a3"></path><path d="M491 492L556.5 495L575.5 396Z" fill="#031e39" stroke="#031e39"></path><path d="M598.5 181L468 189L558.5 306Z" fill="#18486d" stroke="#18486d"></path><path d="M558.5 306L468 189L476 321Z" fill="#2e85b1" stroke="#2e85b1"></path><path d="M297.5 331L370.5 418L476 321Z" fill="#226088" stroke="#226088"></path><path d="M476 321L370.5 418L491 383Z" fill="#0d3252" stroke="#0d3252"></path><path d="M793.5 375L695 341L663 361Z" fill="#031e39" stroke="#031e39"></path><path d="M663 361L695 341L558.5 306Z" fill="#266c95" stroke="#266c95"></path><path d="M695 341L598.5 181L558.5 306Z" fill="#18486d" stroke="#18486d"></path><path d="M370.5 418L370.5 482L491 492Z" fill="#18486d" stroke="#18486d"></path><path d="M527.5 600L650 516L556.5 495Z" fill="#133d5f" stroke="#133d5f"></path><path d="M556.5 495L650 516L575.5 396Z" fill="#031e39" stroke="#031e39"></path><path d="M527.5 600L556.5 495L491 492Z" fill="#266c95" stroke="#266c95"></path><path d="M695 341L653 160L598.5 181Z" fill="#133d5f" stroke="#133d5f"></path><path d="M598.5 181L580.5 74L468 189Z" fill="#2a78a3" stroke="#2a78a3"></path><path d="M360.5 174L297.5 331L476 321Z" fill="#226088" stroke="#226088"></path><path d="M370.5 418L246 438L370.5 482Z" fill="#133d5f" stroke="#133d5f"></path><path d="M443 70L360.5 174L468 189Z" fill="#18486d" stroke="#18486d"></path><path d="M468 189L360.5 174L476 321Z" fill="#1d547a" stroke="#1d547a"></path><path d="M793.5 375L764.5 295L695 341Z" fill="#031e39" stroke="#031e39"></path><path d="M695 341L764.5 295L653 160Z" fill="#2e85b1" stroke="#2e85b1"></path><path d="M488 600L527.5 600L491 492Z" fill="#2e85b1" stroke="#2e85b1"></path><path d="M380.5 600L488 600L491 492Z" fill="#0d3252" stroke="#0d3252"></path><path d="M764.5 295L708 143L653 160Z" fill="#2e85b1" stroke="#2e85b1"></path><path d="M653 160L580.5 74L598.5 181Z" fill="#266c95" stroke="#266c95"></path><path d="M650 516L793.5 375L663 361Z" fill="#2e85b1" stroke="#2e85b1"></path><path d="M708 143L580.5 74L653 160Z" fill="#082845" stroke="#082845"></path><path d="M580.5 74L443 70L468 189Z" fill="#082845" stroke="#082845"></path><path d="M297.5 331L246 438L370.5 418Z" fill="#031e39" stroke="#031e39"></path><path d="M370.5 482L380.5 600L491 492Z" fill="#031e39" stroke="#031e39"></path><path d="M198 327L246 438L297.5 331Z" fill="#082845" stroke="#082845"></path><path d="M234 600L380.5 600L370.5 482Z" fill="#2e85b1" stroke="#2e85b1"></path><path d="M900 306L788.5 182L764.5 295Z" fill="#082845" stroke="#082845"></path><path d="M764.5 295L788.5 182L708 143Z" fill="#3292bf" stroke="#3292bf"></path><path d="M705 0L559.5 0L580.5 74Z" fill="#082845" stroke="#082845"></path><path d="M443 70L361.5 71L360.5 174Z" fill="#226088" stroke="#226088"></path><path d="M199 219L198 327L297.5 331Z" fill="#082845" stroke="#082845"></path><path d="M527.5 600L717 600L650 516Z" fill="#2e85b1" stroke="#2e85b1"></path><path d="M650 516L809.5 509L793.5 375Z" fill="#2a78a3" stroke="#2a78a3"></path><path d="M199 219L297.5 331L360.5 174Z" fill="#3292bf" stroke="#3292bf"></path><path d="M717 600L809.5 509L650 516Z" fill="#1d547a" stroke="#1d547a"></path><path d="M793.5 375L900 306L764.5 295Z" fill="#2a78a3" stroke="#2a78a3"></path><path d="M705 0L580.5 74L708 143Z" fill="#133d5f" stroke="#133d5f"></path><path d="M580.5 74L559.5 0L443 70Z" fill="#031e39" stroke="#031e39"></path><path d="M443 70L421 0L361.5 71Z" fill="#2a78a3" stroke="#2a78a3"></path><path d="M248 109L199 219L360.5 174Z" fill="#031e39" stroke="#031e39"></path><path d="M559.5 0L421 0L443 70Z" fill="#0d3252" stroke="#0d3252"></path><path d="M361.5 71L248 109L360.5 174Z" fill="#133d5f" stroke="#133d5f"></path><path d="M342.5 0L248 109L361.5 71Z" fill="#2e85b1" stroke="#2e85b1"></path><path d="M717 600L791.5 600L809.5 509Z" fill="#266c95" stroke="#266c95"></path><path d="M900 388L900 306L793.5 375Z" fill="#226088" stroke="#226088"></path><path d="M900 388L793.5 375L900 464Z" fill="#133d5f" stroke="#133d5f"></path><path d="M900 464L793.5 375L809.5 509Z" fill="#3292bf" stroke="#3292bf"></path><path d="M104.5 514L194 541L246 438Z" fill="#0d3252" stroke="#0d3252"></path><path d="M246 438L234 600L370.5 482Z" fill="#0d3252" stroke="#0d3252"></path><path d="M104.5 514L246 438L77.5 430Z" fill="#082845" stroke="#082845"></path><path d="M194 541L234 600L246 438Z" fill="#082845" stroke="#082845"></path><path d="M421 0L342.5 0L361.5 71Z" fill="#2a78a3" stroke="#2a78a3"></path><path d="M825.5 89L705 0L708 143Z" fill="#266c95" stroke="#266c95"></path><path d="M825.5 89L708 143L788.5 182Z" fill="#0d3252" stroke="#0d3252"></path><path d="M900 127L825.5 89L788.5 182Z" fill="#031e39" stroke="#031e39"></path><path d="M900 600L900 464L809.5 509Z" fill="#2e85b1" stroke="#2e85b1"></path><path d="M900 306L900 187L788.5 182Z" fill="#0d3252" stroke="#0d3252"></path><path d="M248 109L130.5 199L199 219Z" fill="#031e39" stroke="#031e39"></path><path d="M199 219L92.5 302L198 327Z" fill="#082845" stroke="#082845"></path><path d="M118.5 75L130.5 199L248 109Z" fill="#1d547a" stroke="#1d547a"></path><path d="M130.5 199L92.5 302L199 219Z" fill="#18486d" stroke="#18486d"></path><path d="M900 187L900 127L788.5 182Z" fill="#266c95" stroke="#266c95"></path><path d="M825.5 89L796.5 0L705 0Z" fill="#031e39" stroke="#031e39"></path><path d="M900 0L796.5 0L825.5 89Z" fill="#0d3252" stroke="#0d3252"></path><path d="M77.5 430L246 438L198 327Z" fill="#1d547a" stroke="#1d547a"></path><path d="M194 541L125.5 600L234 600Z" fill="#0d3252" stroke="#0d3252"></path><path d="M92.5 302L77.5 430L198 327Z" fill="#226088" stroke="#226088"></path><path d="M791.5 600L900 600L809.5 509Z" fill="#226088" stroke="#226088"></path><path d="M0 600L125.5 600L104.5 514Z" fill="#0d3252" stroke="#0d3252"></path><path d="M104.5 514L125.5 600L194 541Z" fill="#0d3252" stroke="#0d3252"></path><path d="M342.5 0L194 0L248 109Z" fill="#031e39" stroke="#031e39"></path><path d="M130.5 199L0 265L92.5 302Z" fill="#2a78a3" stroke="#2a78a3"></path><path d="M194 0L118.5 75L248 109Z" fill="#226088" stroke="#226088"></path><path d="M92.5 302L0 393L77.5 430Z" fill="#0d3252" stroke="#0d3252"></path><path d="M900 127L900 0L825.5 89Z" fill="#133d5f" stroke="#133d5f"></path><path d="M0 265L0 393L92.5 302Z" fill="#18486d" stroke="#18486d"></path><path d="M77.5 430L0 504L104.5 514Z" fill="#2e85b1" stroke="#2e85b1"></path><path d="M0 193L0 265L130.5 199Z" fill="#1d547a" stroke="#1d547a"></path><path d="M0 97L0 193L130.5 199Z" fill="#2e85b1" stroke="#2e85b1"></path><path d="M194 0L97.5 0L118.5 75Z" fill="#18486d" stroke="#18486d"></path><path d="M118.5 75L0 97L130.5 199Z" fill="#266c95" stroke="#266c95"></path><path d="M0 393L0 504L77.5 430Z" fill="#266c95" stroke="#266c95"></path><path d="M97.5 0L0 97L118.5 75Z" fill="#266c95" stroke="#266c95"></path><path d="M0 504L0 600L104.5 514Z" fill="#133d5f" stroke="#133d5f"></path><path d="M97.5 0L0 0L0 97Z" fill="#266c95" stroke="#266c95"></path></g></svg>